/* XPM */
static char *result[] = {
/* columns rows colors chars-per-pixel */
"50 50 183 2 ",
"   c #59BD1F",
".  c #57BC1D",
"X  c #5ABE22",
"o  c #5AC223",
"O  c #54C629",
"+  c #5EC128",
"@  c #4FCE30",
"#  c #54CD31",
"$  c #49D739",
"%  c #45DD3E",
"&  c #4AD739",
"*  c #5DDC36",
"=  c #54DE39",
"-  c #6ED227",
";  c #6DD62B",
":  c #6CD92E",
">  c #71D427",
",  c #71D52A",
"<  c #64C333",
"1  c #63DA31",
"2  c #6CDD33",
"3  c #77D732",
"4  c #78D734",
"5  c #74D935",
"6  c #78D835",
"7  c #77D83A",
"8  c #4DE13E",
"9  c #66E73D",
"0  c #69E238",
"q  c #4CDA40",
"w  c #53D741",
"e  c #59D342",
"r  c #6FC641",
"t  c #70C844",
"y  c #72CC4B",
"u  c #6FDF42",
"i  c #68D348",
"p  c #75DA40",
"a  c #7CDB44",
"s  c #7DCD58",
"d  c #6ED557",
"f  c #60DF50",
"g  c #77D050",
"h  c #7BDE57",
"j  c #42E445",
"k  c #48E244",
"l  c #46E44A",
"z  c #4AE44D",
"x  c #44E848",
"c  c #56E042",
"v  c #5EE349",
"b  c #5DF24A",
"n  c #4DE450",
"m  c #4EE851",
"M  c #54E557",
"N  c #57E55A",
"B  c #5AE459",
"V  c #56F650",
"C  c #54FD56",
"Z  c #54FF59",
"A  c #5BFE5D",
"S  c #59F952",
"D  c #67EC49",
"F  c #74E54C",
"G  c #64F658",
"H  c #5EFF62",
"J  c #67E569",
"K  c #6BE46D",
"L  c #63E865",
"P  c #77E869",
"I  c #62F565",
"U  c #61FF65",
"Y  c #66F569",
"T  c #6AF66D",
"R  c #6EE570",
"E  c #76EC74",
"W  c #75E477",
"Q  c #6EF671",
"!  c #72F675",
"~  c #73FF76",
"^  c #76F679",
"/  c #7AF77D",
"(  c #77FF7B",
")  c #7BFD7E",
"_  c #7CFA77",
"`  c #82DF4D",
"'  c #83CD5F",
"]  c #85DD53",
"[  c #8BDF5B",
"{  c #83D35D",
"}  c #81E75F",
"|  c #89E159",
" . c #83E153",
".. c #87D664",
"X. c #89D762",
"o. c #89EA6A",
"O. c #92E264",
"+. c #96E36A",
"@. c #88E676",
"#. c #86E173",
"$. c #96E270",
"%. c #96EB77",
"&. c #91EF7D",
"*. c #83F577",
"=. c #8BF07C",
"-. c #7EF781",
";. c #7EFD81",
":. c #9DDE85",
">. c #80E882",
",. c #87E588",
"<. c #95E78D",
"1. c #93E983",
"2. c #82F784",
"3. c #8CF583",
"4. c #83F986",
"5. c #86F889",
"6. c #8AF88D",
"7. c #8DF68C",
"8. c #9CF18A",
"9. c #97E898",
"0. c #9EE99F",
"q. c #8EF891",
"w. c #97F690",
"e. c #92F995",
"r. c #96FA99",
"t. c #9BFA9D",
"y. c #A7EC89",
"u. c #AAED8F",
"i. c #A1EB83",
"p. c #A9EE9D",
"a. c #A5F79F",
"s. c #A0FE9E",
"d. c #ABF39A",
"f. c #9EFBA1",
"g. c #BAEDAC",
"h. c #A2FBA4",
"j. c #AAFDA0",
"k. c #A6FAA9",
"l. c #AAFBAD",
"z. c #B6F0A0",
"x. c #B4FBAB",
"c. c #BAFCAC",
"v. c #BBF4AB",
"b. c #AEFCB1",
"n. c #B2FCB4",
"m. c #B6FBB9",
"M. c #BAFCBD",
"N. c #BCFBB7",
"B. c #C1F598",
"V. c #C4F899",
"C. c #C9F89F",
"Z. c #C7F6A0",
"A. c #C6F8A0",
"S. c #CAF9A4",
"D. c #CCF7AD",
"F. c #C1FBAD",
"G. c #CCF9AB",
"H. c #D0F9AD",
"J. c #C3F4B3",
"K. c #C0F1B8",
"L. c #C3FDBD",
"P. c #CDFCBA",
"I. c #C9FBB5",
"U. c #D3FAB3",
"Y. c #D1FCBB",
"T. c #BEFBC1",
"R. c #C3FDC5",
"E. c #C8F9C2",
"W. c #C6FDC9",
"Q. c #CAFDCC",
"!. c #D0FBCB",
"~. c #CDFCD1",
"^. c #D3FDD5",
"/. c #D9FED6",
"(. c #D5FDD9",
"). c #DAFDDD",
"_. c #DDFEE2",
"`. c #E3FDE5",
"'. c #E6FEE9",
"]. c #EAFEED",
"[. c #EEFFF1",
"{. c #F1FFF3",
"}. c None",
/* pixels */
"}.}.}.}.}.}.}.}.}.}.}.}.}.}.}.}.}.}.}.}.}.}.}.}.}.}.}.}.}.}.}.}.}.}.}.}.}.}.}.}.}.}.}.}.}.}.}.}.}.}.",
"}.}.}.}.}.}.}.}.}.}.}.}.}.}.}.}.}.}.}.}.}.}.}.}.}.}.}.}.}.}.}.}.}.}.}.}.}.}.}.}.}.}.}.}.}.}.}.}.}.}.",
"}.}.}.}.}.}.}.}.}.}.}.}.}.}.}.}.}.}.}.}.}.}.}.}.}.}.}.}.}.}.}.}.}.}.}.}.}.}.}.}.}.}.}.}.}.}.}.}.}.}.",
"}.}.}.}.}.}.}.}.}.}.}.}.}.}.}.}.}.}.}.}.}.}.}.}.}.}.}.}.}.}.}.}.}.}.}.}.}.}.}.}.}.}.}.}.}.}.}.}.}.}.",
"}.}.}.}.}.}.}.}.}.}.}.}.}.}.}.}.}.}.}.}.}.}.}.}.}.}.}.}.}.}.}.}.}.}.}.}.}.}.}.}.}.}.}.}.}.}.}.}.}.}.",
"}.}.}.}.}.}.}.}.}.}.}.}.}.}.}.}.}.}.}.}.}.}.}.}.}.}.}.}.}.}.}.}.}.}.}.}.}.}.}.}.}.}.}.}.}.}.}.}.}.}.",
"}.}.}.}.}.}.}.}.}.}.}.}.}.}.}.}.}.}.}.}.}.}.}.}.}.}.}.}.}.}.}.}.}.}.}.}.}.}.}.}.}.}.}.}.}.}.}.}.}.}.",
"}.}.}.}.}.}.}.}.}.}.}.}.}.}.}.}.}.}.}.}.}.}.}.}.2.5.T Y I }.}.}.}.}.}.}.}.}.}.}.}.}.}.}.}.}.}.}.}.}.",
"}.}.}.}.}.}.}.}.}.}.}.}.}.}.}.}.}.}.I Y Q Q ! *.t.3.*.! Q T Y Y }.}.}.}.}.}.}.}.}.}.}.}.}.}.}.}.}.}.",
"}.}.}.}.}.}.}.}.}.}.}.}.}.}.}.}.I T Q ^ ^ ) -.t.d.*.=.4.) / ^ Q Q }.}.}.}.}.}.}.}.}.}.}.}.}.}.}.}.}.",
"}.}.}.}.}.}.}.}.}.}.}.}.}.}.}.Y Q ^ / -.4.5.e.x.j._ } 6.5.4.2.-.^ Q }.}.}.}.}.}.}.}.}.}.}.}.}.}.}.}.",
"}.}.}.}.}.}.}.}.}.}.}.}.}.}.T ! / -.5.6.e.e.h.F.s.4.F &.r.e.q.5.2.-.^ Q }.}.}.}.}.}.}.}.}.}.}.}.}.}.",
"}.}.}.}.}.}.}.}.}.}.}.}.}.T ^ / 5.6.e.t.f.f.c.F.f.4.D  .f.f.t.r.q.5.-./ Q Y }.}.}.}.}.}.}.}.}.}.}.}.",
"}.}.}.}.}.}.}.}.}.}.}.}.T ^ -.5.q.r.f.k.l.x.G.x.f.4.G 5 8.l.l.h.r.e.6.2./ Q Y }.}.}.}.}.}.}.}.}.}.}.",
"}.}.}.}.}.}.}.}.}.}.}.T ^ -.5.e.t.h.b.n.n.F.G.n.f.( A 2 [ b.m.b.k.f.r.6.2.^ Q I }.}.}.}.}.}.}.}.}.}.",
"}.}.}.}.}.}.}.}.}.}.}.! -.5.e.t.k.b.T.T.L.G.P.n.t.~ A 9 3 d.W.T.n.l.f.e.6.2.^ T }.}.}.}.}.}.}.}.}.}.",
"}.}.}.}.}.}.}.}.}.}.Q -.5.q.f.k.n.T.~.W.I.U.L.n.h.) H b ; O.Q.^.W.n.l.f.e.5.-.Q Y }.}.}.}.}.}.}.}.}.",
"}.}.}.}.}.}.}.}.}.T ! -.6.r.f.b.T.~.).Q.S.U.L.n.s.4.H S 2 4 v._.^.W.m.k.f.q.4./ }.}.}.}.}.}.}.}.}.}.",
"}.}.}.}.}.}.}.}.Y Q -.-.e.f.l.T.W._.).P.C.Y.N.b.t.*.U Z 0 > O.).'.^.R.b.k.9.5.-.! }.}.}.}.}.}.}.}.}.",
"}.}.}.}.}.}.}.}.Y ! -.6.0.k.m.T.).'./.Z.G.P.M.b.r.( H A D > 4 J.[.`.~.M.k.f.6.4.^ Q }.}.}.}.}.}.}.}.",
"}.}.}.}.}.}.}.}.Y ! 4.q.f.l.T.~.'._.P.V.H.L.R.N.t.) U Z b ; > +.`.[.(.R.n.f.e.5.-.Q }.}.}.}.}.}.}.}.",
"}.}.}.}.}.}.}.}.Q -.5.r.k.b.T._.]./.S.C.U.E.Q.M.s.4.U Z C 2 > 6 J.{.'.!.M.l.r.5.-.! }.}.}.}.}.}.}.}.",
"}.}.}.}.}.}.}.}.Q -.q.r.k.m.Q._.`.Y.C.H.P.R.Q.N.s.;.U Z Z 9 , > $.'.].~.T.l.f.q.-.! }.}.}.}.}.}.}.}.",
"}.}.}.}.}.}.}.}.Q -.q.r.l.m.~.'.).G.S.U.P.W.R.l.t.;.U Z Z b , > 4 K.{._.T.b.f.e.2.^ Q }.}.}.}.}.}.}.",
"}.}.}.}.}.}.}.}.! -.e.f.l.M.^._.P.B.Z.D.N.R.N.h.q.) U C C V : - > $.].).W.n.f.e.5.^ T }.}.}.}.}.}.}.",
"}.}.}.}.}.}.}.}.! -.6.r.k.T.~._.z.[ O.$.<.0.9.>.E L n x x k O X X X.'.).E.n.f.e.2.^ T }.}.}.}.}.}.}.",
"}.}.}.}.}.}.}.}.! -.6.t.l.m.~._.!.[ a ] #.,.,.W J N z j j & X   X g.{.).T.b.f.e.2.^ T }.}.}.}.}.}.}.",
"}.}.}.}.}.}.}.}.Q -.6.r.k.m.W.'.`.u.7 a h R R J N n x j j @ .   ' `.[.~.T.l.f.7.2.^ }.}.}.}.}.}.}.}.",
"}.}.}.}.}.}.}.I Q / 4.e.h.n.W.).].!.] 7 p M M M n j j j j O . + g.{.'.~.M.l.t.6.-.! }.}.}.}.}.}.}.}.",
"}.}.}.}.}.}.}.}.Q / 4.e.f.b.T.~.'.'.u.5 7 c z z z j j j % X X .._.[.).W.b.h.r.5./ Q }.}.}.}.}.}.}.}.",
"}.}.}.}.}.}.}.}.Y ! -.7.r.k.m.W.).'.!.` , * l z x j j j e r s K.[.'.~.T.b.t.e.5.^ Q }.}.}.}.}.}.}.}.",
"}.}.}.}.}.}.}.}.L Q -.5.e.h.b.M.~._._.y.; 1 k l l j j j d ' :.).'.).T.n.k.r.6.-.! }.}.}.}.}.}.}.}.}.",
"}.}.}.}.}.}.}.}.}.T ^ 2.q.r.k.n.T.~._.E.a : % j j j j k y y g.`.).W.m.l.f.q.4./ }.}.}.}.}.}.}.}.}.}.",
"}.}.}.}.}.}.}.}.}.}.Q -.2.e.t.l.n.R.~.~.i.; = j j j j q < ..~.(.W.m.l.f.r.6.-.! }.}.}.}.}.}.}.}.}.}.",
"}.}.}.}.}.}.}.}.}.}.}.! -.5.e.f.k.n.T.R.x.a 1 j j j j e r p.W.R.m.l.h.r.6.2.^ Q }.}.}.}.}.}.}.}.}.}.",
"}.}.}.}.}.}.}.}.}.}.}.}.^ -.6.e.f.k.b.m.m.%.: k j j j O g n.M.n.l.f.r.q.4./ Q }.}.}.}.}.}.}.}.}.}.}.",
"}.}.}.}.}.}.}.}.}.}.}.}.Q ^ -.6.e.r.h.l.l.h.7 = j j % O 1.l.l.k.f.e.6.4.-.Q }.}.}.}.}.}.}.}.}.}.}.}.",
"}.}.}.}.}.}.}.}.}.}.}.}.Y Q ^ -.5.q.e.t.f.f.o.* j j @ y t.h.f.r.e.5.-.-.! Y }.}.}.}.}.}.}.}.}.}.}.}.",
"}.}.}.}.}.}.}.}.}.}.}.}.}.I Q ! ) 2.5.q.e.r.w.F j j @ @.r.r.e.6.2.-.^ Q Y }.}.}.}.}.}.}.}.}.}.}.}.}.",
"}.}.}.}.}.}.}.}.}.}.}.}.}.}.I Y ! / / 2.5.5.6.o.8 % i q.6.5.2.-./ E Q }.}.}.}.}.}.}.}.}.}.}.}.}.}.}.",
"}.}.}.}.}.}.}.}.}.}.}.}.}.}.}.}.Y T ! ^ ) / 2.3.v $ P 4.-./ / ! Q }.}.}.}.}.}.}.}.}.}.}.}.}.}.}.}.}.",
"}.}.}.}.}.}.}.}.}.}.}.}.}.}.}.}.}.}.}.}.Q ! ! / P f 2.! ! Q }.}.}.}.}.}.}.}.}.}.}.}.}.}.}.}.}.}.}.}.",
"}.}.}.}.}.}.}.}.}.}.}.}.}.}.}.}.}.}.}.}.}.}.Y Y ! E T }.}.}.}.}.}.}.}.}.}.}.}.}.}.}.}.}.}.}.}.}.}.}.",
"}.}.}.}.}.}.}.}.}.}.}.}.}.}.}.}.}.}.}.}.}.}.}.}.}.}.}.}.}.}.}.}.}.}.}.}.}.}.}.}.}.}.}.}.}.}.}.}.}.}.",
"}.}.}.}.}.}.}.}.}.}.}.}.}.}.}.}.}.}.}.}.}.}.}.}.}.}.}.}.}.}.}.}.}.}.}.}.}.}.}.}.}.}.}.}.}.}.}.}.}.}.",
"}.}.}.}.}.}.}.}.}.}.}.}.}.}.}.}.}.}.}.}.}.}.}.}.}.}.}.}.}.}.}.}.}.}.}.}.}.}.}.}.}.}.}.}.}.}.}.}.}.}.",
"}.}.}.}.}.}.}.}.}.}.}.}.}.}.}.}.}.}.}.}.}.}.}.}.}.}.}.}.}.}.}.}.}.}.}.}.}.}.}.}.}.}.}.}.}.}.}.}.}.}.",
"}.}.}.}.}.}.}.}.}.}.}.}.}.}.}.}.}.}.}.}.}.}.}.}.}.}.}.}.}.}.}.}.}.}.}.}.}.}.}.}.}.}.}.}.}.}.}.}.}.}.",
"}.}.}.}.}.}.}.}.}.}.}.}.}.}.}.}.}.}.}.}.}.}.}.}.}.}.}.}.}.}.}.}.}.}.}.}.}.}.}.}.}.}.}.}.}.}.}.}.}.}.",
"}.}.}.}.}.}.}.}.}.}.}.}.}.}.}.}.}.}.}.}.}.}.}.}.}.}.}.}.}.}.}.}.}.}.}.}.}.}.}.}.}.}.}.}.}.}.}.}.}.}."
};
