/* XPM */
static char *result[] = {
/* columns rows colors chars-per-pixel */
"50 50 128 2 ",
"   c #74330B",
".  c #7C340C",
"X  c #83340C",
"o  c #8C340D",
"O  c #8F390F",
"+  c #93340C",
"@  c #99350C",
"#  c #95390D",
"$  c #9C3B0E",
"%  c #8F3510",
"&  c #8C3B13",
"*  c #913611",
"=  c #943C13",
"-  c #9B3D13",
";  c #993F19",
":  c #A53B0E",
">  c #AC3D0E",
",  c #B13E0E",
"<  c #A23E12",
"1  c #A93E10",
"2  c #964115",
"3  c #9B4314",
"4  c #9F4916",
"5  c #944219",
"6  c #9C431A",
"7  c #974818",
"8  c #9D491B",
"9  c #AB400F",
"0  c #B4400F",
"q  c #BA410F",
"w  c #A44313",
"e  c #AB4312",
"r  c #A34B16",
"t  c #AA4914",
"y  c #A2451C",
"u  c #AA461B",
"i  c #A24B1D",
"p  c #AC491B",
"a  c #B34312",
"s  c #BD4412",
"d  c #B64C15",
"f  c #BD4C14",
"g  c #B54B1D",
"h  c #BC4919",
"j  c #A3501B",
"k  c #BD551A",
"l  c #9D4920",
"z  c #A44721",
"x  c #A54A22",
"c  c #AB4D24",
"v  c #AF4F28",
"b  c #B04E26",
"n  c #B84F21",
"m  c #A55322",
"M  c #AB5326",
"N  c #AE5428",
"B  c #AE5929",
"V  c #B35426",
"C  c #B85227",
"Z  c #B2532B",
"A  c #BE562C",
"S  c #B25B2C",
"D  c #B95D2F",
"F  c #BC5C33",
"G  c #B2612C",
"H  c #BD612E",
"J  c #BD6232",
"K  c #C3430F",
"L  c #C24511",
"P  c #C44A14",
"I  c #C84D14",
"U  c #C64E1C",
"Y  c #C84F1E",
"T  c #C55117",
"R  c #CB5216",
"E  c #CF5817",
"W  c #C4531C",
"Q  c #CB551A",
"!  c #C5591B",
"~  c #CC5A1B",
"^  c #D05717",
"/  c #D15D1B",
"(  c #CC611E",
")  c #D5631D",
"_  c #D8661F",
"`  c #C55323",
"'  c #C95625",
"]  c #C55D22",
"[  c #CD5C23",
"{  c #CB5728",
"}  c #C55A2D",
"|  c #CC5C2C",
" . c #D05E20",
".. c #C15D33",
"X. c #CB5E31",
"o. c #CE6226",
"O. c #CF602C",
"+. c #D46523",
"@. c #D76820",
"#. c #D2652B",
"$. c #D56B2B",
"%. c #D96D2A",
"&. c #C36335",
"*. c #CD6234",
"=. c #C36B34",
"-. c #C66438",
";. c #CB6439",
":. c #C66939",
">. c #CC6C3C",
",. c #D16534",
"<. c #D36934",
"1. c #D16739",
"2. c #D26C3B",
"3. c #CE713D",
"4. c #DB7231",
"5. c #DC7837",
"6. c #D4733E",
"7. c #D9753E",
"8. c #D26E40",
"9. c #D57642",
"0. c #D97741",
"q. c #D77842",
"w. c #DA7B43",
"e. c #DE8145",
"r. c #DD824A",
"t. c #E08145",
"y. c #E1874C",
"u. c None",
/* pixels */
"u.u.u.u.u.u.u.u.u.u.u.u.u.u.u.u.u.u.u.u.u.u.u.u.u.u.u.u.u.u.u.u.u.u.u.u.u.u.u.u.u.u.u.u.u.u.u.u.u.u.",
"u.u.u.u.u.u.u.u.u.u.u.u.u.u.u.u.u.u.u.u.u.u.u.u.u.u.u.u.u.u.u.u.u.u.u.u.u.u.u.u.u.u.u.u.u.u.u.u.u.u.",
"u.u.u.u.u.u.u.u.u.u.u.u.u.u.u.u.u.u.u.u.u.u.u.u.u.u.u.u.u.u.u.u.u.u.u.u.u.u.u.u.u.u.u.u.u.u.u.u.u.u.",
"u.u.u.u.u.u.. . . . . . X . . . X . . . . . . . X . . . . X . . . . X . . . . . . X . . u.u.u.u.u.u.",
"u.u.u.u.u.X # # = # # # # # # + X # - # # # @ # + o o = # # # # = # o X # $ # # # # # # X u.u.u.u.u.",
"u.u.u.u.o # a f L L L s L s s 1 = a L L L s h L a # 1 L P f s L L L 1 @ a s s s s P L e # o u.u.u.u.",
"u.u.u.u.+ w A *.;.X.X.;.*.X.1 u F X.;.X.X.;.X.1.} - u X.;.X.*.*.;.*...Z 1 n *.*.*.-.,.` w # u.u.u.u.",
"u.u.u.X + > C ....F ..F ..Z - y F ..F F F F F ..Z = z F F F F F F F ..Z * y F F F F F Z 1 o X u.u.u.",
"u.u.u.$ $ 3 : w - 3 < - - - $ $ - - - - - - - 3 - + = - - = = - - = - = O O = = = = = # O o o u.u.u.",
"u.u.u.@ p J =.J &.&.&.&.&.G r i &.&.J J H J H J V 6 i F F H D H D D J M 2 i D S S S S D S 6 X u.u.u.",
"u.u.u.@ V r.y.e.e.e.e.e.e.5.j G e.e.w.w.w.7.7.7.>.8 G w.w.7.6.6.6.6.7.=.3 S q.6.2.6.2.6.>.r X u.u.u.",
"u.u.u.@ V r.5.%.%.%.%.@.%.o.j G w.%.@.$.@.@.+.+.~ 4 S q.$.~ +.o./ [ / W 2 S 2.O.' Q ' Q Q 3 X u.u.u.",
"u.u.u.@ V r.4._ _ _ ) ) _ ( j G w.%.) ( ) / / / ! 3 B w.+.E E E ~ E E f 2 S 6.[ R R R I T 3 X u.u.u.",
"u.u.u.@ M 3.$.( ( ( ( ( ( ! r B 3.o.~ ! ~ ! ! ~ k 3 B >.] T W W T f T d # N -.W I f f P f # X u.u.u.",
"u.u.u.@ 3 m j j j 4 j r 4 4 7 7 8 r 4 4 r 4 4 3 3 2 2 4 3 3 3 - 3 3 $ = # = 6 - 3 - $ $ * O X u.u.u.",
"u.u.u.@ w S G m 7 m B G G B B B B B m 2 j M M B M M N N N 8 = i M M M M M M c m 6 % 6 M c = X u.u.u.",
"u.u.u.@ M q.e.=.8 J w.w.w.0.q.q.q.q.H 7 J 9.9.6.6.6.9.8.9.S 2 F 9.>.2.>.2.>.>.1.V = F 8.-.r X u.u.u.",
"u.u.u.# t $.%.] 8 J w.$.+.#.#.#.#.#.k 3 J 6.O.o.o.[  .[ [ g = J 2.[ { [ ' [ ' ~ d = J 1.` 3 X u.u.u.",
"u.u.u.@ a ~ ) k 8 J 7.+.~ ^ ~ ^ E E k 2 J 6.~ R R R R R R a = J 2.R I I I I P I 1 = F ,.P $ X u.u.u.",
"u.u.u.# t ~ ~ k 8 G 6.[ ~ ~ ~ ~ Q Q d 2 D <.' R T T I T R e = F *.P P I P P P L 1 = D | f - . u.u.u.",
"u.u.u.# - t t 4 2 l m t t t w w w w 3 O 8 i w < w w : w w # O 6 y < : $ : < - * # o ; y - o X u.u.u.",
"u.u.u.+ 2 m m i j 8 j x 5 2 8 8 i i x 8 i 8 8 2 * 6 6 6 6 6 6 6 6 6 * O ; ; ; ; ; ; ; ; ; o X u.u.u.",
"u.u.u.@ p 3.9.3.3.3.8.3.B 3 J >.>.>.>.>.>.>.>.x 2 J >.:.>.;.>.-.;.-.z = F ;.X.8.-.-...-...5 . u.u.u.",
"u.u.u.+ i #.#.<.#.#.<.#.p 6 :.6.O.#.O.O.| | | t 6 ;.2.| { | | [ | | < ; -.,.{ { { { { { ` 6 . u.u.u.",
"u.u.u.+ e Q ~ E E R R Q e 5 :.,.T R I I I I I : 2 -.*.P P K I L L L : ; ..{ L K L K L K s # . u.u.u.",
"u.u.u.+ e T E R E R R R e 6 :.#.R I I I I I I : ; &.| P L I K I L K < ; ..{ K K K L K L s $ . u.u.u.",
"u.u.u.+ $ e e t e t e e $ = c c e 1 e e e e e # % c p 1 : 1 > > > : + % c z > : : : > : : o X u.u.u.",
"u.u.u.# = 2 6 2 2 = = = 2 = 2 = = = = = o o = = * = = = = * * o % * * * * * * * * + o o + X . u.u.u.",
"u.u.u.+ i &.&.&.J i = F &.&.J ..&.&.F F ; - Z ......F F F F F = = Z ..F A F F ..F Z = ; Z 5 . u.u.u.",
"u.u.u.o u ,.<.<.,.y 6 >.2.O.,.,.*.*.*.O.y 6 ;.1.X.X.X.X.X.X.| - ; 8.;.X.X.| | X.X.{ ; < ;.l . u.u.u.",
"u.u.u.# 1 T R U I w 6 -.| U P P P P I P @ ; -.| L L L L L L s @ ; ..{ K s s P L K L * < ..l . u.u.u.",
"u.u.u.+ : I I I I : 3 -.| I I K I P L L : ; -.{ L L K L L K L @ z X.` K K K K K K , * z -.l . u.u.u.",
"u.u.u.+ $ a a a a $ = Z C a a a , , , , @ = Z n , , > , , , > + * v h > , , , > > > + * v ; . u.u.u.",
"u.u.u.+ + = = # * + O * # + + o * * * * % % * * + o o + + * + % % % + % % + + + + + % % * % . u.u.u.",
"u.u.u.o 6 Z Z Z S Z Z Z S M * ; v Z Z v v Z Z Z z % * v v v Z v v v v z % ; b b v v v v v & . u.u.u.",
"u.u.u.o u ;.2.1.*.*.;.1.;.} = z ;.;.*.X.X.X.X.;.} - z ;.*.*.*.*.;.X.*.} * b ;.;.X.X.;.;...l . u.u.u.",
"u.u.u.o 1 U I I P U U P P s * z ;.Y P U P P L Y , * z ;.Y U Y L h L Y , + b ;.Y P P P P h = . u.u.u.",
"u.u.u.o : L K K K K K K L q @ x ;.{ K K K K K I , @ z ;.Y K K K K K K , + b ;.h K L L K L * . u.u.u.",
"u.u.u.o $ a q a s , , s , , + < .., K , , K , , , + z } h , , , s , q > % z } h , , 0 q 0 O   u.u.u.",
"u.u.u.# o # @ # @ @ + + @ % o % ; + + + + @ + * + % % * + @ @ @ + @ + @ o + * + @ @ + @ + X . u.u.u.",
"u.u.u.o ; z c ; % ; z z z z z z z z ; o ; z z z z z z z z ; o ; z z z z z z y z ; o ; z z & . u.u.u.",
"u.u.u.o z X.;.Z % b 8.X.X.;.;.;.X.;.Z * v ;.X.X.;.;.X.X.;.b * Z 8.;.;.X.;.;.;.;.c * Z 8...;   u.u.u.",
"u.u.u.o - Y Q a % v 1.` Y Y Y Y U Y e * Z 1.` Y ` Y Y Y Y 1 * Z X.` U U Y Y Y W 1 * A *.` 2   u.u.u.",
"u.u.u.o $ s K , + v X.P K K K s L L , + Z X.P K K s K L L 1 * Z X.L K K K K K K > * F X.s * . u.u.u.",
"u.u.u.o $ s L > o v X.L , s s K s L > o N X.L q s q L , L : + S ..L , L s s q f : * S } s O   u.u.u.",
"u.u.u.o # $ $ @ o ; l - < @ - @ $ $ + X ; 6 - # @ - $ $ # + X 5 6 = # $ # # # # o X 5 5 O X . u.u.u.",
"u.u.u.X X X X X X X . X X . X . . . . .   . . . . . .       .                                 u.u.u.",
"u.u.u.u.u.u.u.u.u.u.u.u.u.u.u.u.u.u.u.u.u.u.u.u.u.u.u.u.u.u.u.u.u.u.u.u.u.u.u.u.u.u.u.u.u.u.u.u.u.u.",
"u.u.u.u.u.u.u.u.u.u.u.u.u.u.u.u.u.u.u.u.u.u.u.u.u.u.u.u.u.u.u.u.u.u.u.u.u.u.u.u.u.u.u.u.u.u.u.u.u.u.",
"u.u.u.u.u.u.u.u.u.u.u.u.u.u.u.u.u.u.u.u.u.u.u.u.u.u.u.u.u.u.u.u.u.u.u.u.u.u.u.u.u.u.u.u.u.u.u.u.u.u."
};
